<svg width="84" height="84" viewBox="0 0 84 84" fill="none" xmlns="http://www.w3.org/2000/svg">
<circle cx="42" cy="42" r="39.5" fill="#C0C0C0" stroke="#54493F" stroke-width="5"/>
<path d="M36.8445 50.5166C36.0633 51.2954 34.799 51.2947 34.0187 50.5149L26.0008 42.503C25.2205 41.7233 23.9563 41.7225 23.1751 42.5013L22.4207 43.2533C21.6368 44.0349 21.6368 45.3045 22.4207 46.0861L33.6364 57.2673C34.1099 57.7366 34.7505 58 35.4181 58C36.0858 58 36.7264 57.7366 37.1999 57.2673L63.5793 30.9689C64.3632 30.1874 64.3632 28.9177 63.5793 28.1361L62.8486 27.4077C62.068 26.6296 60.805 26.6296 60.0245 27.4077L36.8445 50.5166Z" fill="#595149"/>
</svg>
