<svg width="13" height="16" viewBox="0 0 13 16" fill="none" xmlns="http://www.w3.org/2000/svg">
<path d="M1.89584 15.5833C1.60366 15.5833 1.35353 15.4793 1.14545 15.2712C0.93738 15.0631 0.833344 14.813 0.833344 14.5208V6.8354C0.833344 6.54321 0.93738 6.29308 1.14545 6.08501C1.35353 5.87693 1.60366 5.7729 1.89584 5.7729H3.13543V4.0729C3.13543 3.14203 3.46366 2.34855 4.12012 1.69245C4.77658 1.03636 5.5705 0.708313 6.50189 0.708313C7.43327 0.708313 8.22657 1.03636 8.88178 1.69245C9.53699 2.34855 9.86459 3.14203 9.86459 4.0729V5.7729H11.1042C11.3964 5.7729 11.6465 5.87693 11.8546 6.08501C12.0626 6.29308 12.1667 6.54321 12.1667 6.8354V14.5208C12.1667 14.813 12.0626 15.0631 11.8546 15.2712C11.6465 15.4793 11.3964 15.5833 11.1042 15.5833H1.89584ZM1.89584 14.5208H11.1042V6.8354H1.89584V14.5208ZM6.50299 12.0416C6.87878 12.0416 7.19949 11.9116 7.46511 11.6515C7.73074 11.3914 7.86355 11.0788 7.86355 10.7135C7.86355 10.3594 7.72975 10.0377 7.46214 9.74842C7.19453 9.45918 6.87283 9.31456 6.49704 9.31456C6.12124 9.31456 5.80053 9.45918 5.53491 9.74842C5.26928 10.0377 5.13647 10.3623 5.13647 10.7224C5.13647 11.0824 5.27027 11.3923 5.53788 11.6521C5.80549 11.9118 6.12719 12.0416 6.50299 12.0416ZM4.19793 5.7729H8.80209V4.0729C8.80209 3.43342 8.57848 2.88988 8.13127 2.44226C7.68404 1.99463 7.14098 1.77081 6.5021 1.77081C5.86321 1.77081 5.31945 1.99463 4.87084 2.44226C4.42223 2.88988 4.19793 3.43342 4.19793 4.0729V5.7729Z" fill="#5E5E5E"/>
<rect x="1" y="6" width="11" height="9" rx="1" fill="#5E5E5E"/>
</svg>
