<svg width="414" height="109" viewBox="0 0 414 109" fill="none" xmlns="http://www.w3.org/2000/svg">
<path fill-rule="evenodd" clip-rule="evenodd" d="M263.388 119.888L288.507 114.5C266.517 136.064 275.249 92.1634 231.269 119.888C187.289 147.614 307.368 116.585 263.388 101.182C219.408 85.7795 175.428 42.6516 131.448 24.1683C87.4676 5.68488 41.0208 -2.44335 19.0307 0.637217L-0.492676 2.64144V128.907H21.4974C43.4875 128.907 87.4676 128.907 131.448 128.907C175.428 128.907 219.408 128.907 263.388 128.907C239.456 119.888 211.221 123.808 255.201 123.808C60.9116 109.779 187.866 119.888 209.856 119.888H215.524H263.388Z" fill="#A4978A"/>
<path fill-rule="evenodd" clip-rule="evenodd" d="M-102 56.7738L-76.9577 59.6752C-51.9155 62.5767 -1.83092 68.3796 48.2536 62.5767C98.3382 56.7738 148.423 39.365 198.507 45.1679C248.592 50.9708 298.676 79.9854 348.761 85.7883C398.845 91.5912 448.93 74.1825 473.972 65.4781L499.014 56.7738V109H473.972C448.93 109 398.845 109 348.761 109C298.676 109 248.592 109 198.507 109C148.423 109 98.3382 109 48.2536 109C-1.83092 109 -51.9155 109 -76.9577 109H-102V56.7738Z" fill="#595149"/>
<path fill-rule="evenodd" clip-rule="evenodd" d="M-0.492676 26L9.24364 41.506C11.7334 45.4712 14.9359 48.9283 18.2787 52.2067C29.2865 63.003 43.4458 81.1631 63.5073 87C86.924 93.8131 106.507 93 134.007 96C160.007 101.519 223.091 116.813 246.507 110C271.487 110.5 257.091 107.729 268.799 110L271.487 110L280.507 110L268.799 110C257.091 110 233.674 110 210.257 110C186.841 110 163.424 110 140.007 110C116.591 110 93.174 110 69.7573 110C46.3407 110 22.924 110 11.2157 110H-0.492676V26Z" fill="#3A3027"/>
</svg>
