<svg width="16" height="15" viewBox="0 0 16 15" fill="none" xmlns="http://www.w3.org/2000/svg" role="img"><path d="M8 6.97711C6.99167 6.97711 6.16667 6.65628 5.525 6.01461C4.88334 5.37295 4.5625 4.54795 4.5625 3.53961C4.5625 2.53128 4.88334 1.70628 5.525 1.06461C6.16667 0.422945 6.99167 0.102112 8 0.102112C9.00834 0.102112 9.83334 0.422945 10.475 1.06461C11.1167 1.70628 11.4375 2.53128 11.4375 3.53961C11.4375 4.54795 11.1167 5.37295 10.475 6.01461C9.83334 6.65628 9.00834 6.97711 8 6.97711ZM0.666672 14.3334V12.1792C0.666672 11.5986 0.811811 11.1021 1.10209 10.6896C1.39237 10.2771 1.76667 9.96392 2.22501 9.75003C3.24862 9.2917 4.23021 8.94795 5.1698 8.71878C6.10938 8.48961 7.05278 8.37503 8 8.37503C8.94723 8.37503 9.88681 8.49343 10.8188 8.73024C11.7507 8.96704 12.7279 9.30846 13.7503 9.75447C14.2285 9.97029 14.6119 10.2832 14.9005 10.6933C15.189 11.1033 15.3333 11.5986 15.3333 12.1792V14.3334H0.666672ZM2.04167 12.9584H13.9583V12.1792C13.9583 11.9348 13.8858 11.7018 13.7406 11.4802C13.5955 11.2587 13.416 11.0945 13.2021 10.9875C12.2243 10.5139 11.3306 10.1893 10.5208 10.0136C9.71112 9.83788 8.87084 9.75003 8 9.75003C7.12917 9.75003 6.28125 9.83788 5.45625 10.0136C4.63125 10.1893 3.7375 10.5139 2.775 10.9875C2.56112 11.0945 2.38542 11.2587 2.24792 11.4802C2.11042 11.7018 2.04167 11.9348 2.04167 12.1792V12.9584ZM8 5.60211C8.59584 5.60211 9.08855 5.40732 9.47813 5.01774C9.86771 4.62815 10.0625 4.13545 10.0625 3.53961C10.0625 2.94378 9.86771 2.45107 9.47813 2.06149C9.08855 1.6719 8.59584 1.47711 8 1.47711C7.40417 1.47711 6.91146 1.6719 6.52188 2.06149C6.1323 2.45107 5.9375 2.94378 5.9375 3.53961C5.9375 4.13545 6.1323 4.62815 6.52188 5.01774C6.91146 5.40732 7.40417 5.60211 8 5.60211Z" fill="#5E5E5E"/></svg>
