<svg width="58" height="52" viewBox="0 0 38 32" fill="none" xmlns="http://www.w3.org/2000/svg">
<path d="M15.3858 16.8154H23.8458C24.0798 16.8154 24.3043 16.7215 24.4698 16.5544C24.6353 16.3874 24.7283 16.1608 24.7283 15.9245C24.7283 15.6882 24.6353 15.4617 24.4698 15.2946C24.3043 15.1275 24.0798 15.0337 23.8458 15.0337H15.3858L16.5269 13.8818C16.6877 13.7138 16.7766 13.4888 16.7746 13.2552C16.7726 13.0216 16.6798 12.7982 16.5162 12.633C16.3525 12.4678 16.1312 12.3741 15.8998 12.3721C15.6684 12.3701 15.4455 12.4599 15.279 12.6221L12.6314 15.2947C12.5492 15.3774 12.484 15.4757 12.4395 15.584C12.395 15.6922 12.3721 15.8082 12.3721 15.9254C12.3721 16.0426 12.395 16.1586 12.4395 16.2668C12.484 16.3751 12.5492 16.4734 12.6314 16.5561L15.279 19.2287C15.3604 19.3137 15.4578 19.3816 15.5655 19.4283C15.6731 19.475 15.789 19.4996 15.9061 19.5006C16.0233 19.5016 16.1395 19.4791 16.248 19.4343C16.3565 19.3895 16.455 19.3233 16.5379 19.2397C16.6207 19.1561 16.6862 19.0566 16.7306 18.9471C16.775 18.8376 16.7973 18.7203 16.7963 18.602C16.7953 18.4838 16.7709 18.3669 16.7247 18.2582C16.6784 18.1495 16.6112 18.0512 16.5269 17.969L15.3858 16.8154Z" fill="#A4978A"/>
</svg>
