<svg width="15" height="15" viewBox="0 0 15 15" fill="none" xmlns="http://www.w3.org/2000/svg">
<path fill-rule="evenodd" clip-rule="evenodd" d="M14.686 6.01649C15.1872 9.60646 13.6757 14.9913 7.49135 14.9913C3.35405 14.9913 0 11.6373 0 7.49999C0 3.36268 3.35405 0.00863647 7.49135 0.00863647C9.4327 0.00863647 11.2015 0.747152 12.5325 1.95843C10.9647 3.43905 11.0163 3.52674 10.4 4.14307C9.63017 3.50643 8.79085 3.04967 7.49135 3.04967C5.03359 3.04967 3.11524 5.04222 3.11524 7.49999C3.11524 9.95775 5.03359 11.9503 7.49135 11.9503C9.92001 11.9503 10.9069 10.9029 11.5415 8.97954C10.3696 8.97954 7.49135 8.98331 7.49135 8.98331V6.01649C7.49135 6.01649 13.2221 6.01649 14.686 6.01649Z" fill="#5E5E5E"/>
</svg>
