<?xml version='1.0' encoding='utf-8'?>
<svg xmlns="http://www.w3.org/2000/svg" data-name="Layer 1" viewBox="0 0 1e3 1e3"> <defs> <style>.cls-1 { fill: #fec013; } .cls-2 { fill: #fdd5b3; } .cls-3 { fill: #616d84; } .cls-4 { fill: #a9cafe; } .cls-5 { fill: #525f77; } .cls-6 { fill: none; stroke: #222f48; stroke-linecap: round; stroke-linejoin: round; stroke-width: 19.69px; } .cls-7 { fill: #779ee9; }</style> </defs> <g data-name="Generative Object"> <path class="cls-4" d="M393.82,605.98c4.57,18.58,13.15,38.57,18.63,57.55,27.5,95.37,58.55,189.77,86.37,285.05l.54,1.78-1.83-.03-449.13-2.47c-20.61-163.48,103.7-324.88,269.69-339.21l.49-2.64c1.51.5,2.99.99,4.54,1.37l1.47.87c1.03-.06,2.05-.11,3.08-.16l1.72-.08c13.12,1.95,39.18.74,53.39.22,3.88-.14,8.15,1.12,11.05-2.24Z"/> <path class="cls-7" d="M670.74,604.01l.41,3.24c176.69,17.71,299.16,164.06,280.89,340.55-149.53,4.64-299.32,2.54-448.92,2.54l-.97-1.71c29.72-57.71,73.67-220.58,92.95-289.87,5.17-18.58,11.16-33.62,14.24-53.29,3.34,1.45,6.76.66,10.18.74,14.05.34,28.38-.18,42.39.6.67.04,1.33.15,1.99.19.91.06,1.84,0,2.76.07l.67-1.56c1.17-.42,2.27-1.03,3.43-1.49Z"/> <path class="cls-3" d="M725.54,281.47c-.4,3.86-.97,7.73-1.55,11.58l-8.42-1.79c-85.75-10.39-158.48-53.98-216-117.48-53.48,67.59-131.83,103.54-214.61,119.93l-9.18.26c11.48,78.86,49.36,161.17,113.56,210.75-1.67,3.51-.97,7.29-1.04,11-.59,31.66-2.05,59.53,5.5,90.27-2.9,3.36-7.17,2.1-11.05,2.24-14.21.53-40.27,1.73-53.39-.22l-1.72.08c-1.03.05-2.05.1-3.08.16l-1.47-.87c-1.55-.37-3.02-.87-4.54-1.37-12.52-4.14-89.53-42.36-100.4-49.98-5.01-3.51-10.46-6.21-12.58-12.58,36.09-85.14,57.36-173.54,67.01-265.3l.78-1.24c-.1-1.45-.17-2.91-.19-4.29-.03-1.57.48-3.16.46-4.74-2.99-297.77,461.22-287.02,453.11,0-.01.45-.04.91-.06,1.36-.02.59-.09,1.2-.12,1.81.03-.61.1-1.22.12-1.81.16,2.21.19,4.63.39,6.98l-1.01.29c-.14,1.65-.38,3.3-.56,4.96Z"/> <path class="cls-5" d="M670.74,604.01c-1.15.46-2.26,1.07-3.43,1.49l-.67,1.56c-.92-.07-1.84,0-2.76-.07-.67-.04-1.33-.15-1.99-.19-14.01-.78-28.33-.26-42.39-.6-3.42-.08-6.84.7-10.18-.74,4.17-26.6,4.21-60.97,2.78-87.9-.2-3.8,1.52-8.18-2.56-10.34,64.3-51.22,102.56-134.4,114.45-214.17.57-3.85,1.14-7.72,1.55-11.58l2.12,1.34c9.74,91.28,33.99,180.3,69.99,264.43-41.78,19.71-84.05,39.49-126.92,56.77Z"/> <path class="cls-1" d="M595.09,658.75c-19.28,69.29-63.23,232.16-92.95,289.87-.58,1.13-.97,2.25-2.23,2.81l-.55-1.07-.54-1.78c-27.83-95.28-58.87-189.68-86.37-285.05,5.62-.71,9.44,3.75,13.7,5.98,64.33,33.75,88.73,32.72,151.44-3.05,5.3-3.02,11.1-8.79,17.5-7.71Z"/> <path class="cls-2" d="M724,293.05c-11.89,79.76-50.15,162.94-114.45,214.17,4.08,2.16,2.35,6.54,2.56,10.34,1.43,26.93,1.39,61.3-2.78,87.9-3.08,19.67-9.07,34.71-14.24,53.29-6.4-1.09-12.2,4.69-17.5,7.71-62.72,35.77-87.11,36.8-151.44,3.05-4.25-2.23-8.08-6.69-13.7-5.98-5.47-18.98-14.06-38.97-18.63-57.55-7.55-30.74-6.09-58.61-5.5-90.27.07-3.71-.64-7.49,1.04-11-64.21-49.58-102.09-131.89-113.56-210.75l9.18-.26c82.77-16.39,161.13-52.34,214.61-119.93,57.52,63.5,130.26,107.1,216,117.48l8.42,1.79Z"/> <path class="cls-6" d="m284.97 293.71c82.77-16.39 161.13-52.34 214.61-119.93 57.52 63.5 130.26 107.1 216 117.48"/> <path class="cls-6" d="M382.78,608.22c-14.21.53-40.27,1.73-53.39-.22-2.07-.31-4.18-.12-6.27-.63-1.55-.37-3.02-.87-4.54-1.37-12.52-4.14-89.53-42.36-100.4-49.98-5.01-3.51-10.46-6.21-12.58-12.58,36.09-85.14,57.36-173.54,67.01-265.3.2-1.86.36-3.74.59-5.52.03,1.38.09,2.84.19,4.29.39,5.72,1.58,11.35,2.41,17.05,11.48,78.86,49.36,161.17,113.56,210.75,65.42,50.52,154.18,55.1,220.19,2.5,64.3-51.22,102.56-134.4,114.45-214.17.57-3.85,1.14-7.72,1.55-11.58.17-1.65.42-3.3.56-4.96.15-1.82.39-3.64.49-5.46.03-.61.1-1.22.12-1.81.16,2.21.19,4.63.39,6.98.19,2.19.33,4.39.56,6.58,9.74,91.28,33.99,180.3,69.99,264.43-41.78,19.71-84.05,39.49-126.92,56.77-1.15.46-2.26,1.07-3.43,1.49-1.76.64-3.55,1.12-5.42,1.3-14.01-.78-28.33-.26-42.39-.6"/> <path class="cls-6" d="m726.77 267.88c8.1-287.02-456.11-297.77-453.11 0"/> <path class="cls-6" d="M388.33,515.71c-.59,31.66-2.05,59.53,5.5,90.27,4.57,18.58,13.15,38.57,18.63,57.55,27.5,95.37,58.55,189.77,86.37,285.05l.54,1.78.55,1.07,2.23-2.81c29.72-57.71,73.67-220.58,92.95-289.87,5.17-18.58,11.16-33.62,14.24-53.29,4.17-26.6,4.21-60.97,2.78-87.9"/> <path class="cls-6" d="M329.13,608l-1.47.07c-1.03.05-2.05.1-3.08.16-2.16.12-4.33.23-6.49.41-165.99,14.33-290.3,175.73-269.69,339.21l449.13,2.47h5.58c149.6,0,299.39,2.11,448.92-2.54,18.27-176.49-104.2-322.83-280.89-340.55-1.49-.15-3.01-.07-4.5-.18-.92-.07-1.84,0-2.76-.07"/> <path class="cls-6" d="M424.5,668.66l1.64.85c64.33,33.75,88.73,32.72,151.44-3.05"/> <line class="cls-6" x1="195.98" x2="195.98" y1="941.08" y2="861.56"/> <line class="cls-6" x1="804.45" x2="804.45" y1="941.08" y2="861.56"/> </g> </svg>